# Exported from ProBuilder
# http://www.procore3d.com/probuilder
# 2/19/2018 11:51:52 PM

mtllib ./RaceTrack_Flat.mtl
o RaceTrack_Flat

g Cube
v 0.5 0.25 5
v 0.5 0.5 4.99641
v 2.5 0.25 5
v 0.5 0.5 4.99641
v 2.500541 0.4999982 4.996951
v 2.5 0.25 5
v 0.5 0.5 -1
v 0.5 0.25 -1
v 2.5 0.5 -1
v 0.5 0.25 -1
v 2.5 0.25 -1
v 2.5 0.5 -1
v 2.5 0.5 -1
v 2.5 0.25 -1
v 4 0.75 -1
v 2.5 0.25 -1
v 4 0.25 -1
v 4 0.75 -1
v 2.5 0.25 5
v 2.500541 0.4999982 4.996951
v 4 0.25 5
v 2.500541 0.4999982 4.996951
v 4 0.75 4.99641
v 4 0.25 5
v 2.5 0.25 0.5
v 2.5 0.25 4.492821
v 4 0.25 0.5
v 2.5 0.25 4.492821
v 4 0.25 4.492821
v 4 0.25 0.5
v 0.5 0.25 0.5
v -1 0.25 0.5
v 0.5 0.25 4.492821
v -1 0.25 0.5
v -1 0.25 4.492821
v 0.5 0.25 4.492821
v 0.5 0.25 -1
v -1 0.25 -1
v 0.5 0.25 0.5
v -1 0.25 -1
v -1 0.25 0.5
v 0.5 0.25 0.5
v 0.5 0.25 -1
v 0.5 0.25 0.5
v 2.5 0.25 -1
v 0.5 0.25 0.5
v 2.5 0.25 0.5
v 2.5 0.25 -1
v 0.5 0.25 0.5
v 0.5 0.25 4.492821
v 2.5 0.25 0.5
v 0.5 0.25 4.492821
v 2.5 0.25 4.492821
v 2.5 0.25 0.5
v 2.5 0.25 -1
v 2.5 0.25 0.5
v 4 0.25 -1
v 2.5 0.25 0.5
v 4 0.25 0.5
v 4 0.25 -1
v -1 0.25 0.5
v -1 0.75 0.5
v -1 0.25 4.492821
v -1 0.75 0.5
v -1 0.75 4.99641
v -1 0.25 4.492821
v -1 0.25 0.5
v -1 0.25 -1
v -1 0.75 0.5
v -1 0.25 -1
v -1 0.75 -1
v -1 0.75 0.5
v 0.5 0.25 -1
v 0.5 0.5 -1
v -1 0.75 -1
v -1 0.25 -1
v 0.5 0.25 -1
v -1 0.75 -1
v -1 0.25 5
v -1 0.75 4.99641
v 0.5 0.5 4.99641
v 0.5 0.25 5
v -1 0.25 5
v 0.5 0.5 4.99641
v -1 0.25 4.492821
v -1 0.75 4.99641
v -1 0.25 5
v 0.5 0.25 4.492821
v -1 0.25 4.492821
v 0.5 0.25 5
v -1 0.25 4.492821
v -1 0.25 5
v 0.5 0.25 5
v 2.5 0.25 4.492821
v 0.5 0.25 4.492821
v 2.5 0.25 5
v 0.5 0.25 4.492821
v 0.5 0.25 5
v 2.5 0.25 5
v 4 0.25 4.492821
v 2.5 0.25 4.492821
v 4 0.25 5
v 2.5 0.25 4.492821
v 2.5 0.25 5
v 4 0.25 5
v 4 0.25 4.492821
v 4 0.25 5
v 4 0.75 4.99641
v 4 0.75 0.5
v 4 0.25 0.5
v 4 0.75 4.99641
v 4 0.25 0.5
v 4 0.25 4.492821
v 4 0.75 4.99641
v 4 0.25 -1
v 4 0.25 0.5
v 4 0.75 -1
v 4 0.25 0.5
v 4 0.75 0.5
v 4 0.75 -1
v 0.5 0.5 0.5
v 0.5 0.5 4.99641
v -1 0.75 4.99641
v -1 0.75 0.5
v 0.5 0.5 0.5
v -1 0.75 4.99641
v 0.5 0.5 0.5
v -1 0.75 0.5
v 0.5 0.5 -1
v -1 0.75 0.5
v -1 0.75 -1
v 0.5 0.5 -1
v 0.5 0.5 0.5
v 0.5 0.5 -1
v 2.5 0.5 0.5
v 2.5 0.5 -1
v 4 0.75 -1
v 4 0.75 0.5
v 2.5 0.5 0.5
v 2.5 0.5 -1
v 4 0.75 0.5
v 0.5 0.5 -1
v 2.5 0.5 -1
v 2.5 0.5 0.5
v 2.5 0.5 0.5
v 4 0.75 0.5
v 4 0.75 4.99641
v 2.500541 0.4999982 4.996951
v 2.5 0.5 0.5
v 4 0.75 4.99641
v 0.5 0.5 0.5
v 2.5 0.5 0.5
v 2.500541 0.4999982 4.996951
v 0.5 0.5 4.99641
v 0.5 0.5 0.5
v 2.500541 0.4999982 4.996951

vn 0 -0.594258 0.3999588
vn 0.02755434 0.3390793 0.6666155
vn -4.50437E-05 -0.4935431 0.499958
vn 0.02755434 0.3390793 0.6666155
vn -0.0275939 0.5029914 0.4999743
vn -4.50437E-05 -0.4935431 0.499958
vn 0.05479966 0.6621313 -0.3333333
vn 0 -0.3333333 -0.6666667
vn -0.05479966 0.4954647 -0.5
vn 0 -0.3333333 -0.6666667
vn 0 -0.5 -0.5
vn -0.05479966 0.4954647 -0.5
vn -0.05479966 0.4954647 -0.5
vn 0 -0.5 -0.5
vn 0.3671202 0.1972788 -0.4
vn 0 -0.5 -0.5
vn 0.25 -0.5 -0.25
vn 0.3671202 0.1972788 -0.4
vn -4.50437E-05 -0.4935431 0.499958
vn -0.0275939 0.5029914 0.4999743
vn 0.1998328 -0.3961258 0.3999799
vn -0.0275939 0.5029914 0.4999743
vn 0.4450512 0.3299927 0.1666657
vn 0.1998328 -0.3961258 0.3999799
vn 0 -1 0
vn 0 -1 0
vn 0.5714286 -0.4285714 0
vn 0 -1 0
vn 0.5 -0.5 0
vn 0.5714286 -0.4285714 0
vn 0 -1 0
vn -0.4 -0.6 0
vn 0 -1 0
vn -0.4 -0.6 0
vn -0.5 -0.5 0
vn 0 -1 0
vn 0 -0.3333333 -0.6666667
vn -0.4 -0.4 -0.2
vn 0 -1 0
vn -0.4 -0.4 -0.2
vn -0.4 -0.6 0
vn 0 -1 0
vn 0 -0.3333333 -0.6666667
vn 0 -1 0
vn 0 -0.5 -0.5
vn 0 -1 0
vn 0 -1 0
vn 0 -0.5 -0.5
vn 0 -1 0
vn 0 -1 0
vn 0 -1 0
vn 0 -1 0
vn 0 -1 0
vn 0 -1 0
vn 0 -0.5 -0.5
vn 0 -1 0
vn 0.25 -0.5 -0.25
vn 0 -1 0
vn 0.5714286 -0.4285714 0
vn 0.25 -0.5 -0.25
vn -0.4 -0.6 0
vn -0.5009719 0.4227403 0
vn -0.5 -0.5 0
vn -0.5009719 0.4227403 0
vn -0.3340011 0.3959932 0.1999947
vn -0.5 -0.5 0
vn -0.4 -0.6 0
vn -0.4 -0.4 -0.2
vn -0.5009719 0.4227403 0
vn -0.4 -0.4 -0.2
vn -0.2089002 0.2465985 -0.5
vn -0.5009719 0.4227403 0
vn 0 -0.3333333 -0.6666667
vn 0.05479966 0.6621313 -0.3333333
vn -0.2089002 0.2465985 -0.5
vn -0.4 -0.4 -0.2
vn 0 -0.3333333 -0.6666667
vn -0.2089002 0.2465985 -0.5
vn -0.2497009 -0.2446167 0.4999676
vn -0.3340011 0.3959932 0.1999947
vn 0.02755434 0.3390793 0.6666155
vn 0 -0.594258 0.3999588
vn -0.2497009 -0.2446167 0.4999676
vn 0.02755434 0.3390793 0.6666155
vn -0.5 -0.5 0
vn -0.3340011 0.3959932 0.1999947
vn -0.2497009 -0.2446167 0.4999676
vn 0 -1 0
vn -0.5 -0.5 0
vn 0 -0.594258 0.3999588
vn -0.5 -0.5 0
vn -0.2497009 -0.2446167 0.4999676
vn 0 -0.594258 0.3999588
vn 0 -1 0
vn 0 -1 0
vn -4.50437E-05 -0.4935431 0.499958
vn 0 -1 0
vn 0 -0.594258 0.3999588
vn -4.50437E-05 -0.4935431 0.499958
vn 0.5 -0.5 0
vn 0 -1 0
vn 0.1998328 -0.3961258 0.3999799
vn 0 -1 0
vn -4.50437E-05 -0.4935431 0.499958
vn 0.1998328 -0.3961258 0.3999799
vn 0.5 -0.5 0
vn 0.1998328 -0.3961258 0.3999799
vn 0.4450512 0.3299927 0.1666657
vn 0.3013606 0.5918364 0
vn 0.5714286 -0.4285714 0
vn 0.4450512 0.3299927 0.1666657
vn 0.5714286 -0.4285714 0
vn 0.5 -0.5 0
vn 0.4450512 0.3299927 0.1666657
vn 0.25 -0.5 -0.25
vn 0.5714286 -0.4285714 0
vn 0.3671202 0.1972788 -0.4
vn 0.5714286 -0.4285714 0
vn 0.3013606 0.5918364 0
vn 0.3671202 0.1972788 -0.4
vn 0.08219966 0.993197 6.848136E-08
vn 0.02755434 0.3390793 0.6666155
vn -0.3340011 0.3959932 0.1999947
vn -0.5009719 0.4227403 0
vn 0.08219966 0.993197 6.848136E-08
vn -0.3340011 0.3959932 0.1999947
vn 0.08219966 0.993197 6.848136E-08
vn -0.5009719 0.4227403 0
vn 0.05479966 0.6621313 -0.3333333
vn -0.5009719 0.4227403 0
vn -0.2089002 0.2465985 -0.5
vn 0.05479966 0.6621313 -0.3333333
vn 0.08219966 0.993197 6.848136E-08
vn 0.05479966 0.6621313 -0.3333333
vn -0.08220931 0.9931954 3.431887E-06
vn -0.05479966 0.4954647 -0.5
vn 0.3671202 0.1972788 -0.4
vn 0.3013606 0.5918364 0
vn -0.08220931 0.9931954 3.431887E-06
vn -0.05479966 0.4954647 -0.5
vn 0.3013606 0.5918364 0
vn 0.05479966 0.6621313 -0.3333333
vn -0.05479966 0.4954647 -0.5
vn -0.08220931 0.9931954 3.431887E-06
vn -0.08220931 0.9931954 3.431887E-06
vn 0.3013606 0.5918364 0
vn 0.4450512 0.3299927 0.1666657
vn -0.0275939 0.5029914 0.4999743
vn -0.08220931 0.9931954 3.431887E-06
vn 0.4450512 0.3299927 0.1666657
vn 0.08219966 0.993197 6.848136E-08
vn -0.08220931 0.9931954 3.431887E-06
vn -0.0275939 0.5029914 0.4999743
vn 0.02755434 0.3390793 0.6666155
vn 0.08219966 0.993197 6.848136E-08
vn -0.0275939 0.5029914 0.4999743

vt -1 -0.2930396
vt -1 -0.04301388
vt 1 -0.2930396
vt -0.9991902 -0.03653987
vt 1.001351 -0.03654172
vt 1.000811 -0.2865584
vt 1 0
vt 1 -0.25
vt -1 0
vt 1 -0.25
vt -1 -0.25
vt -1 0
vt -1 0
vt -1 -0.25
vt -2.5 0.25
vt -1 -0.25
vt -2.5 -0.25
vt -2.5 0.25
vt 1 -0.28656
vt 1.000541 -0.03654327
vt 2.5 -0.28656
vt 1.003046 -0.02150831
vt 2.502505 0.2285
vt 2.502508 -0.2715129
vt 1 -1.5
vt 1 2.492821
vt 2.5 -1.5
vt 1 2.492821
vt 2.5 2.492821
vt 2.5 -1.5
vt -1 -1.5
vt -2.5 -1.5
vt -1 2.492821
vt -2.5 -1.5
vt -2.5 2.492821
vt -1 2.492821
vt -1 -3
vt -2.5 -3
vt -1 -1.5
vt -2.5 -3
vt -2.5 -1.5
vt -1 -1.5
vt -1 -3
vt -1 -1.5
vt 1 -3
vt -1 -1.5
vt 1 -1.5
vt 1 -3
vt -1 -1.5
vt -1 2.492821
vt 1 -1.5
vt -1 2.492821
vt 1 2.492821
vt 1 -1.5
vt 1 -3
vt 1 -1.5
vt 2.5 -3
vt 1 -1.5
vt 2.5 -1.5
vt 2.5 -3
vt -1.5 -0.25
vt -1.5 0.25
vt 2.492821 -0.25
vt -1.5 0.25
vt 2.996411 0.25
vt 2.492821 -0.25
vt -1.5 -0.25
vt -3 -0.25
vt -1.5 0.25
vt -3 -0.25
vt -3 0.25
vt -1.5 0.25
vt 1 -0.25
vt 1 0
vt 2.5 0.25
vt 2.5 -0.25
vt 1 -0.25
vt 2.5 0.25
vt -2.503587 -0.2715064
vt -2.503583 0.2285065
vt -1.003584 -0.02149998
vt -1 -0.2930396
vt -2.5 -0.2930396
vt -1 -0.04301388
vt 2.492821 -0.25
vt 2.996411 0.25
vt 3 -0.25
vt -1 2.492821
vt -2.5 2.492821
vt -1 3
vt -2.5 2.492821
vt -2.5 3
vt -1 3
vt 1 2.492821
vt -1 2.492821
vt 1 3
vt -1 2.492821
vt -1 3
vt 1 3
vt 2.5 2.492821
vt 1 2.492821
vt 2.5 3
vt 1 2.492821
vt 1 3
vt 2.5 3
vt -2.492821 -0.25
vt -3 -0.25
vt -2.996411 0.25
vt 1.5 0.25
vt 1.5 -0.25
vt -2.996411 0.25
vt 1.5 -0.25
vt -2.492821 -0.25
vt -2.996411 0.25
vt 3 -0.25
vt 1.5 -0.25
vt 3 0.25
vt 1.5 -0.25
vt 1.5 0.25
vt 3 0.25
vt 0.986394 -1.5
vt 0.986394 2.996411
vt 2.507085 2.996411
vt 2.507085 -1.5
vt 0.986394 -1.5
vt 2.507085 2.996411
vt 0.9863939 -1.5
vt 2.507085 -1.5
vt 0.9863939 -3
vt 2.507085 -1.5
vt 2.507085 -3
vt 0.9863939 -3
vt 1 -1.5
vt 1 -3
vt -1 -1.5
vt -0.9863939 -3
vt -2.507085 -3
vt -2.507085 -1.5
vt -0.9863939 -1.5
vt -0.9863939 -3
vt -2.507085 -1.5
vt 1 -3
vt -1 -3
vt -1 -1.5
vt -0.986394 -1.5
vt -2.507085 -1.5
vt -2.507085 2.996411
vt -0.9869172 2.996955
vt -0.9863842 -1.499996
vt -2.507075 2.996414
vt 1 -1.5
vt -1 -1.5
vt -1.000541 2.996951
vt 1 2.996411
vt 1 -1.5
vt -1.000541 2.996951

g Cube_0
usemtl Metal__Ring
f 3/3/3 2/2/2 1/1/1
f 6/6/6 5/5/5 4/4/4
f 9/9/9 8/8/8 7/7/7
f 12/12/12 11/11/11 10/10/10
f 15/15/15 14/14/14 13/13/13
f 18/18/18 17/17/17 16/16/16
f 21/21/21 20/20/20 19/19/19
f 24/24/24 23/23/23 22/22/22
f 63/63/63 62/62/62 61/61/61
f 66/66/66 65/65/65 64/64/64
f 69/69/69 68/68/68 67/67/67
f 72/72/72 71/71/71 70/70/70
f 75/75/75 74/74/74 73/73/73
f 78/78/78 77/77/77 76/76/76
f 81/81/81 80/80/80 79/79/79
f 84/84/84 83/83/83 82/82/82
f 87/87/87 86/86/86 85/85/85
f 90/90/90 89/89/89 88/88/88
f 93/93/93 92/92/92 91/91/91
f 96/96/96 95/95/95 94/94/94
f 99/99/99 98/98/98 97/97/97
f 102/102/102 101/101/101 100/100/100
f 105/105/105 104/104/104 103/103/103
f 108/108/108 107/107/107 106/106/106
f 111/111/111 110/110/110 109/109/109
f 114/114/114 113/113/113 112/112/112
f 117/117/117 116/116/116 115/115/115
f 120/120/120 119/119/119 118/118/118

g Cube_1
usemtl SpatialMappingWireframe
f 27/27/27 26/26/26 25/25/25
f 30/30/30 29/29/29 28/28/28
f 33/33/33 32/32/32 31/31/31
f 36/36/36 35/35/35 34/34/34
f 39/39/39 38/38/38 37/37/37
f 42/42/42 41/41/41 40/40/40
f 45/45/45 44/44/44 43/43/43
f 48/48/48 47/47/47 46/46/46
f 51/51/51 50/50/50 49/49/49
f 54/54/54 53/53/53 52/52/52
f 57/57/57 56/56/56 55/55/55
f 60/60/60 59/59/59 58/58/58
f 123/123/123 122/122/122 121/121/121
f 126/126/126 125/125/125 124/124/124
f 129/129/129 128/128/128 127/127/127
f 132/132/132 131/131/131 130/130/130
f 135/135/135 134/134/134 133/133/133
f 138/138/138 137/137/137 136/136/136
f 141/141/141 140/140/140 139/139/139
f 144/144/144 143/143/143 142/142/142
f 147/147/147 146/146/146 145/145/145
f 150/150/150 149/149/149 148/148/148
f 153/153/153 152/152/152 151/151/151
f 156/156/156 155/155/155 154/154/154

